<svg width="41" height="32" viewBox="0 0 41 32" fill="none" xmlns="http://www.w3.org/2000/svg">
<rect x="0.778553" y="0.98949" width="39.3251" height="29.7759" rx="5.76032" fill="#DDD9D6" stroke="#666666" stroke-width="0.768043"/>
<path fill-rule="evenodd" clip-rule="evenodd" d="M13.6704 20.4045C13.6972 24.1978 17.2657 28.7199 19.7235 30.1815C19.771 30.2063 19.8127 30.2407 19.8459 30.2827C19.8792 30.3246 19.9032 30.373 19.9165 30.4248C19.9299 30.4767 19.9321 30.5307 19.9232 30.5835C19.9143 30.6362 19.8944 30.6865 19.8647 30.7311C19.8287 30.7911 19.7779 30.841 19.7171 30.8757C19.6562 30.9105 19.5875 30.929 19.5174 30.9295C19.446 30.9297 19.3759 30.9099 19.3152 30.8723C16.6932 29.3267 13.1056 24.8084 12.8766 20.7632H0.793319C0.693292 20.7535 0.600476 20.7068 0.532946 20.6324C0.465417 20.558 0.428009 20.4611 0.428009 20.3606C0.428009 20.2601 0.465417 20.1632 0.532946 20.0888C0.600476 20.0144 0.693292 19.9678 0.793319 19.958H12.9529C13.7145 17.2891 13.7145 14.4604 12.9529 11.7914H0.793319C0.687036 11.7914 0.585106 11.7492 0.509952 11.674C0.434799 11.5989 0.392578 11.497 0.392578 11.3907C0.392578 11.2844 0.434799 11.1825 0.509952 11.1074C0.585106 11.0322 0.687036 10.99 0.793319 10.99H12.8766C13.1056 6.92959 16.7084 2.42651 19.3152 0.880963C19.4088 0.826815 19.5201 0.812075 19.6246 0.839987C19.7291 0.867898 19.8182 0.936174 19.8724 1.02979C19.9265 1.12341 19.9413 1.23471 19.9134 1.3392C19.8854 1.44369 19.8172 1.53281 19.7235 1.58695C17.2657 3.02947 13.6972 7.55545 13.6704 11.3525C14.5446 14.3066 14.5446 17.4505 13.6704 20.4045ZM26.0751 7.31121C24.705 4.57502 22.5524 2.42651 21.1365 1.58695C21.0429 1.53281 20.9746 1.44369 20.9467 1.3392C20.9187 1.23471 20.9335 1.12341 20.9876 1.02979C21.0418 0.936174 21.1309 0.867898 21.2354 0.839987C21.3399 0.812075 21.4512 0.826815 21.5449 0.880963C23.3997 1.96857 25.5561 4.46435 26.7926 6.9296C26.8224 6.97681 26.8415 7.02997 26.8485 7.08534C26.8554 7.14071 26.8502 7.19694 26.8331 7.25007C26.816 7.30319 26.7874 7.35192 26.7495 7.39282C26.7115 7.43371 26.665 7.46578 26.6133 7.48676C26.5581 7.51651 26.4965 7.53224 26.4339 7.53255C26.3594 7.53263 26.2864 7.51196 26.2231 7.47286C26.1597 7.43377 26.1085 7.37779 26.0751 7.31121ZM40.085 19.9581H27.9024C27.1409 17.2891 27.1409 14.4604 27.9024 11.7915H40.085C40.1912 11.7915 40.2932 11.7493 40.3683 11.6741C40.4435 11.599 40.4857 11.4971 40.4857 11.3908C40.4857 11.2845 40.4435 11.1826 40.3683 11.1074C40.2932 11.0323 40.1912 10.9901 40.085 10.9901H27.5933C27.5064 10.9911 27.4222 11.0203 27.3534 11.0733C27.2846 11.1263 27.2348 11.2002 27.2116 11.2839C26.3243 14.2594 26.3243 17.4291 27.2116 20.4046C27.1849 24.1979 23.6164 28.72 21.1586 30.1816C21.1099 30.205 21.0667 30.2384 21.0319 30.2797C20.9971 30.321 20.9714 30.3692 20.9566 30.4212C20.9418 30.4731 20.9382 30.5276 20.9461 30.581C20.9539 30.6345 20.973 30.6856 21.0021 30.7311C21.0381 30.7912 21.0889 30.841 21.1498 30.8758C21.2106 30.9105 21.2793 30.9291 21.3494 30.9296C21.4208 30.9298 21.4909 30.91 21.5517 30.8723C24.1584 29.3459 27.7612 24.8084 27.9902 20.7633H40.085C40.185 20.7535 40.2778 20.7069 40.3453 20.6325C40.4129 20.5581 40.4503 20.4612 40.4503 20.3607C40.4503 20.2602 40.4129 20.1633 40.3453 20.0889C40.2778 20.0145 40.185 19.9678 40.085 19.9581ZM20.0309 3.06642C20.1489 2.98758 20.2877 2.94551 20.4296 2.94551C20.6199 2.94551 20.8024 3.02109 20.9369 3.15564C21.0715 3.29019 21.1471 3.47267 21.1471 3.66295C21.1471 3.80484 21.105 3.94355 21.0262 4.06154C20.9473 4.17952 20.8353 4.27147 20.7041 4.32578C20.573 4.38008 20.4288 4.39428 20.2896 4.3666C20.1504 4.33892 20.0226 4.27059 19.9222 4.17025C19.8219 4.06992 19.7535 3.94208 19.7258 3.80291C19.6982 3.66374 19.7124 3.51949 19.7667 3.38839C19.821 3.2573 19.9129 3.14525 20.0309 3.06642Z" fill="#666666"/>
</svg>
