<?xml version="1.0" encoding="utf-8"?>
<!-- Svg Vector Icons : http://www.onlinewebfonts.com/icon -->
<!DOCTYPE svg PUBLIC "-//W3C//DTD SVG 1.1//EN" "http://www.w3.org/Graphics/SVG/1.1/DTD/svg11.dtd">
<svg version="1.1" xmlns="http://www.w3.org/2000/svg" xmlns:xlink="http://www.w3.org/1999/xlink" x="0px" y="0px" viewBox="0 0 1000 1000" enable-background="new 0 0 1000 1000" xml:space="preserve">
<metadata> Svg Vector Icons : http://www.onlinewebfonts.com/icon </metadata>
<g><path d="M955,535H45c-19.3,0-35-15.7-35-35c0-19.3,15.7-35,35-35h910c19.4,0,35,15.7,35,35C990,519.3,974.4,535,955,535 M850,955h-193c-19.4,0-35-15.6-35-35c0-19.4,15.7-35,35-35h193c19.3,0,35-15.7,35-35V675c0-19.4,15.7-35,35-35c19.4,0,35,15.6,35,35v175C955,907.9,907.9,955,850,955 M349.4,955H150c-57.9,0-105-47.1-105-105V675c0-19.4,15.7-35,35-35s35,15.6,35,35v175c0,19.3,15.7,35,35,35h199.4c19.4,0,35,15.7,35,35C384.4,939.4,368.7,955,349.4,955 M80,360c-19.3,0-35-15.7-35-35V150C45,92.1,92.1,45,150,45h199.4c19.4,0,35,15.7,35,35c0,19.3-15.7,35-35,35H150c-19.3,0-35,15.7-35,35v175C115,344.3,99.3,360,80,360 M920,360c-19.4,0-35-15.7-35-35V150c0-19.3-15.6-35-35-35h-193c-19.4,0-35-15.7-35-35c0-19.3,15.7-35,35-35h193c57.9,0,105,47.1,105,105v175C955,344.3,939.4,360,920,360"/></g>
</svg>