<svg width="24" height="25" viewBox="0 0 24 25" fill="none" xmlns="http://www.w3.org/2000/svg">
<path d="M17.79 23.5322H6.21C3.47 23.5322 1.25 21.3022 1.25 18.5622V11.1522C1.25 9.7922 2.09 8.0822 3.17 7.2422L8.56 3.0422C10.18 1.7822 12.77 1.7222 14.45 2.9022L20.63 7.2322C21.82 8.0622 22.75 9.8422 22.75 11.2922V18.5722C22.75 21.3022 20.53 23.5322 17.79 23.5322ZM9.48 4.2222L4.09 8.4222C3.38 8.9822 2.75 10.2522 2.75 11.1522V18.5622C2.75 20.4722 4.3 22.0322 6.21 22.0322H17.79C19.7 22.0322 21.25 20.4822 21.25 18.5722V11.2922C21.25 10.3322 20.56 9.0022 19.77 8.4622L13.59 4.1322C12.45 3.3322 10.57 3.3722 9.48 4.2222Z" fill="#17181A"/>
<path fill-rule="evenodd" clip-rule="evenodd" d="M10.1973 13.9268C8.81655 13.9268 7.69727 15.046 7.69727 16.4268V22.0345H9.19922V16.9268C9.19922 16.0983 9.87079 15.4268 10.6992 15.4268H13.3008C14.1292 15.4268 14.8008 16.0983 14.8008 16.9268V22.0345H16.3028V16.4268C16.3028 15.046 15.1836 13.9268 13.8028 13.9268H10.1973Z" fill="#17181A"/>
</svg>
