<svg width="141" height="41" viewBox="0 0 141 41" fill="none" xmlns="http://www.w3.org/2000/svg">
<path d="M10.8871 24.0091H6.23046V5.89344H0.251953V2.00293H16.8656V5.89344H10.8871V24.0091Z" fill="#263699"/>
<path d="M31.3849 24.0101L30.4987 21.7269H30.3785C29.5974 22.6995 28.7937 23.3755 27.9751 23.7548C27.1639 24.1228 26.1012 24.3106 24.7905 24.3106C23.1757 24.3106 21.9064 23.8524 20.9751 22.9286C20.0438 22.0085 19.5781 20.6904 19.5781 18.978C19.5781 17.198 20.2015 15.8836 21.4558 15.0424C22.7063 14.1937 24.5878 13.7206 27.1038 13.6304L30.033 13.5403V12.8043C30.033 11.0918 29.1543 10.2356 27.4043 10.2356C26.0599 10.2356 24.4826 10.6412 22.6725 11.4524L21.1403 8.35797C23.0819 7.34779 25.2299 6.84082 27.5845 6.84082C29.8452 6.84082 31.5802 7.33277 32.7819 8.3129C33.9836 9.2968 34.5845 10.7914 34.5845 12.8043V24.0101H31.3849ZM30.033 16.2141L28.2455 16.2742C26.9123 16.3155 25.9209 16.5558 25.2712 16.9952C24.6178 17.4383 24.2948 18.1068 24.2948 19.008C24.2948 20.3111 25.0346 20.9608 26.518 20.9608C27.577 20.9608 28.4295 20.6566 29.0716 20.0445C29.71 19.4249 30.033 18.61 30.033 17.5961V16.2141Z" fill="#263699"/>
<path d="M49.3616 24.3108C47.3787 24.3108 45.824 23.5973 44.7049 22.1627H44.4646C44.6223 23.5672 44.7049 24.3746 44.7049 24.5962V31.4158H40.1084V7.18654H43.8487L44.4946 9.36462H44.7049C45.7752 7.70477 47.3675 6.87109 49.4817 6.87109C51.4646 6.87109 53.0155 7.63718 54.1384 9.16935C55.2575 10.7015 55.8208 12.8345 55.8208 15.5684C55.8208 17.3635 55.5541 18.9257 55.0246 20.255C54.5026 21.5769 53.7553 22.5833 52.7864 23.2743C51.8138 23.9653 50.6722 24.3108 49.3616 24.3108ZM47.9946 10.5363C46.8605 10.5363 46.0343 10.8893 45.5161 11.5878C44.9941 12.29 44.7237 13.4429 44.7049 15.0427V15.5384C44.7049 17.3409 44.9678 18.6403 45.5011 19.4289C46.0418 20.21 46.8906 20.6005 48.0547 20.6005C50.1164 20.6005 51.1491 18.9031 51.1491 15.5083C51.1491 13.856 50.8938 12.6167 50.383 11.783C49.8798 10.9531 49.0837 10.5363 47.9946 10.5363Z" fill="#263699"/>
<path d="M78.9363 5.57801C77.1713 5.57801 75.8118 6.23895 74.8505 7.56082C73.8891 8.87518 73.4084 10.7115 73.4084 13.0736C73.4084 17.9818 75.2485 20.434 78.9363 20.434C80.476 20.434 82.3461 20.0435 84.5393 19.2624V23.1829C82.7367 23.934 80.7238 24.3095 78.5007 24.3095C75.2936 24.3095 72.8413 23.3407 71.1402 21.3954C69.4465 19.4539 68.6016 16.6712 68.6016 13.0436C68.6016 10.7528 69.0147 8.74374 69.8483 7.02005C70.6895 5.30012 71.8837 3.982 73.4384 3.06946C75.0007 2.1494 76.8333 1.6875 78.9363 1.6875C81.0693 1.6875 83.2099 2.20573 85.3654 3.23469L83.8633 7.03507C83.0409 6.64452 82.2147 6.30654 81.3848 6.01363C80.5511 5.72447 79.7362 5.57801 78.9363 5.57801Z" fill="#0B83D9"/>
<path d="M100.353 24.0101L99.4664 21.7269H99.3463C98.5652 22.6995 97.7615 23.3755 96.9429 23.7548C96.1317 24.1228 95.0689 24.3106 93.7583 24.3106C92.1435 24.3106 90.8742 23.8524 89.9429 22.9286C89.0116 22.0085 88.5459 20.6904 88.5459 18.978C88.5459 17.198 89.1693 15.8836 90.4236 15.0424C91.6741 14.1937 93.5555 13.7206 96.0716 13.6304L99.0008 13.5403V12.8043C99.0008 11.0918 98.122 10.2356 96.372 10.2356C95.0276 10.2356 93.4504 10.6412 91.6403 11.4524L90.1081 8.35797C92.0496 7.34779 94.1977 6.84082 96.5523 6.84082C98.813 6.84082 100.548 7.33277 101.75 8.3129C102.951 9.2968 103.552 10.7914 103.552 12.8043V24.0101H100.353ZM99.0008 16.2141L97.2132 16.2742C95.8801 16.3155 94.8887 16.5558 94.239 16.9952C93.5856 17.4383 93.2626 18.1068 93.2626 19.008C93.2626 20.3111 94.0024 20.9608 95.4858 20.9608C96.5448 20.9608 97.3972 20.6566 98.0394 20.0445C98.6778 19.4249 99.0008 18.61 99.0008 17.5961V16.2141Z" fill="#0B83D9"/>
<path d="M120.824 19.0083C120.824 20.7432 120.223 22.0576 119.021 22.9589C117.82 23.8601 116.025 24.3108 113.644 24.3108C112.419 24.3108 111.375 24.2244 110.504 24.0554C109.64 23.8977 108.837 23.6574 108.086 23.3344V19.534C108.934 19.9358 109.896 20.2776 110.97 20.5555C112.04 20.8259 112.983 20.961 113.794 20.961C115.454 20.961 116.287 20.4766 116.287 19.504C116.287 19.1435 116.175 18.8543 115.957 18.6327C115.735 18.4037 115.356 18.1483 114.815 17.8667C114.275 17.5775 113.553 17.2433 112.652 16.8602C111.36 16.3195 110.407 15.82 109.798 15.3581C109.186 14.9 108.739 14.3742 108.461 13.7809C108.191 13.18 108.056 12.4402 108.056 11.5577C108.056 10.0669 108.634 8.91399 109.798 8.10284C110.959 7.28418 112.6 6.87109 114.725 6.87109C116.746 6.87109 118.721 7.31422 120.644 8.19297L119.262 11.4976C118.409 11.1371 117.617 10.8442 116.888 10.6114C116.156 10.3823 115.409 10.2659 114.65 10.2659C113.298 10.2659 112.622 10.6339 112.622 11.3625C112.622 11.7755 112.836 12.136 113.268 12.444C113.707 12.7444 114.665 13.1913 116.137 13.7809C117.448 14.3141 118.409 14.8098 119.021 15.268C119.641 15.7299 120.095 16.2594 120.388 16.8602C120.677 17.4611 120.824 18.1784 120.824 19.0083Z" fill="#0B83D9"/>
<path d="M140.732 24.01H136.151V14.186C136.151 11.7526 135.242 10.5359 133.432 10.5359C132.148 10.5359 131.224 10.979 130.653 11.8577C130.082 12.729 129.797 14.141 129.797 16.0937V24.01H125.2V0.591797H129.797V5.36856C129.797 5.74034 129.759 6.61157 129.692 7.98226L129.586 9.33418H129.827C130.848 7.6931 132.474 6.87069 134.709 6.87069C136.68 6.87069 138.179 7.40394 139.2 8.46294C140.222 9.5257 140.732 11.0541 140.732 13.0444V24.01Z" fill="#0B83D9"/>
<path d="M17.7212 38.1118C17.7212 38.8854 17.4433 39.49 16.8951 39.9293C16.343 40.3725 15.5769 40.5903 14.5968 40.5903C13.6955 40.5903 12.8919 40.4213 12.1934 40.0795V38.4122C12.7642 38.6638 13.2449 38.844 13.6354 38.9529C14.0335 39.0543 14.4015 39.1032 14.732 39.1032C15.13 39.1032 15.438 39.0281 15.6483 38.8778C15.8586 38.7276 15.9637 38.5023 15.9637 38.2019C15.9637 38.0442 15.9112 37.8977 15.8135 37.7663C15.7234 37.6386 15.5882 37.5109 15.4079 37.3907C15.2277 37.2706 14.8597 37.0828 14.3114 36.8199C13.7894 36.5721 13.3988 36.3355 13.1397 36.1139C12.8881 35.8961 12.6816 35.6332 12.5238 35.3328C12.3736 35.0324 12.2985 34.6832 12.2985 34.2813C12.2985 33.5415 12.5464 32.9557 13.0496 32.5238C13.5603 32.0957 14.2663 31.8779 15.1676 31.8779C15.607 31.8779 16.0276 31.9343 16.4294 32.0432C16.8275 32.1446 17.2443 32.291 17.6762 32.4788L17.1054 33.8758C16.6434 33.688 16.2642 33.5566 15.9637 33.4852C15.6708 33.4063 15.3854 33.365 15.1075 33.365C14.7658 33.365 14.5067 33.4477 14.3264 33.6054C14.1461 33.7669 14.056 33.9772 14.056 34.2363C14.056 34.3865 14.0898 34.5217 14.1612 34.6418C14.2288 34.762 14.3452 34.8784 14.5067 34.9873C14.6644 35.1 15.0474 35.2953 15.6483 35.5732C16.4369 35.9562 16.9777 36.3355 17.2706 36.7148C17.571 37.0978 17.7212 37.5635 17.7212 38.1118Z" fill="#F26C0C"/>
<path d="M28.769 40.4713H26.9964V36.6859C26.9964 36.2165 26.9138 35.8673 26.7561 35.6344C26.6059 35.4054 26.358 35.289 26.02 35.289C25.5694 35.289 25.2389 35.4542 25.0286 35.7847C24.8258 36.1151 24.7282 36.6634 24.7282 37.422V40.4713H22.9707V33.9971H24.3226L24.5479 34.8233H24.6531C24.8221 34.5229 25.0737 34.2938 25.4042 34.1323C25.7346 33.9633 26.1102 33.877 26.5308 33.877C27.4997 33.877 28.1568 34.1924 28.4986 34.8233H28.6638C28.8328 34.5229 29.0882 34.2938 29.4299 34.1323C29.7679 33.9633 30.1509 33.877 30.5715 33.877C31.3001 33.877 31.8559 34.0685 32.2389 34.4478C32.6182 34.8195 32.8097 35.4204 32.8097 36.2503V40.4713H31.0372V36.6859C31.0372 36.2165 30.9546 35.8673 30.7968 35.6344C30.6354 35.4054 30.3913 35.289 30.0608 35.289C29.6289 35.289 29.3022 35.4467 29.0844 35.7546C28.8741 36.055 28.769 36.547 28.769 37.2267V40.4713Z" fill="#F26C0C"/>
<path d="M42.5866 40.4717L42.2411 39.5854H42.1961C41.8957 39.9685 41.584 40.2313 41.2648 40.3815C40.9531 40.5205 40.5475 40.5918 40.048 40.5918C39.4246 40.5918 38.9364 40.4191 38.5759 40.0661C38.2154 39.7056 38.0352 39.1949 38.0352 38.5339C38.0352 37.8429 38.2755 37.3397 38.7562 37.0168C39.2369 36.6863 39.9616 36.506 40.9343 36.476L42.0609 36.446V36.1606C42.0609 35.4996 41.7229 35.1692 41.0545 35.1692C40.5325 35.1692 39.9203 35.3269 39.2218 35.6348L38.636 34.4481C39.3871 34.0576 40.2133 33.8623 41.1145 33.8623C41.9858 33.8623 42.6505 34.0538 43.1124 34.4331C43.5818 34.8049 43.8184 35.3795 43.8184 36.1606V40.4717H42.5866ZM42.0609 37.4674L41.3699 37.4975C40.8592 37.5087 40.4761 37.5988 40.2283 37.7678C39.9767 37.9406 39.8527 38.1997 39.8527 38.5489C39.8527 39.0522 40.1382 39.3 40.709 39.3C41.1183 39.3 41.445 39.1873 41.6854 38.9545C41.9332 38.7142 42.0609 38.3987 42.0609 38.0082V37.4674Z" fill="#F26C0C"/>
<path d="M53.0954 33.877C53.3357 33.877 53.5347 33.892 53.6962 33.922L53.561 35.5744C53.4183 35.5443 53.2493 35.5293 53.0503 35.5293C52.4795 35.5293 52.0326 35.6758 51.7134 35.9649C51.4017 36.2466 51.2477 36.6521 51.2477 37.1816V40.4713H49.4902V33.9971H50.8271L51.0825 35.0787H51.1726C51.3717 34.7181 51.642 34.429 51.9838 34.2074C52.3218 33.9896 52.6935 33.877 53.0954 33.877Z" fill="#F26C0C"/>
<path d="M61.4511 39.1795C61.759 39.1795 62.1308 39.1119 62.5627 38.9692V40.2911C62.1196 40.4901 61.5788 40.5915 60.9404 40.5915C60.2381 40.5915 59.7236 40.4113 59.3932 40.0508C59.0702 39.6903 58.9125 39.157 58.9125 38.4435V35.3191H58.0713V34.568L59.0477 33.9822L59.5584 32.6152H60.685V33.9972H62.5026V35.3191H60.685V38.4435C60.685 38.6951 60.7526 38.8791 60.8953 38.9993C61.0343 39.1194 61.2183 39.1795 61.4511 39.1795Z" fill="#F26C0C"/>
<path d="M83.0554 40.472H81.0125L79.8709 36.0257C79.8183 35.868 79.7432 35.5413 79.6456 35.0493C79.5442 34.5499 79.4841 34.2156 79.4653 34.0429C79.4428 34.2532 79.3902 34.5912 79.3001 35.0493C79.21 35.5112 79.1386 35.8417 79.0898 36.0407L77.9482 40.472H75.9053L73.7422 32H75.5147L76.5963 36.6266C76.784 37.479 76.9192 38.2188 77.0018 38.8497C77.0206 38.6319 77.0694 38.2902 77.152 37.8283C77.2422 37.3588 77.321 36.9983 77.3924 36.7467L78.6392 32H80.3366L81.5683 36.7467C81.6171 36.957 81.681 37.2837 81.7636 37.7231C81.8425 38.155 81.9063 38.5305 81.9589 38.8497C81.9889 38.5493 82.0415 38.1737 82.1241 37.7231C82.2142 37.2725 82.2931 36.9082 82.3645 36.6266L83.446 32H85.2185L83.0554 40.472Z" fill="#F26C0C"/>
<path d="M94.1091 40.4717L93.7636 39.5854H93.7185C93.4181 39.9685 93.1064 40.2313 92.7872 40.3815C92.4755 40.5205 92.0699 40.5918 91.5705 40.5918C90.9471 40.5918 90.4589 40.4191 90.0984 40.0661C89.7379 39.7056 89.5576 39.1949 89.5576 38.5339C89.5576 37.8429 89.798 37.3397 90.2786 37.0168C90.7593 36.6863 91.4841 36.506 92.4567 36.476L93.5833 36.446V36.1606C93.5833 35.4996 93.2454 35.1692 92.5769 35.1692C92.0549 35.1692 91.4428 35.3269 90.7443 35.6348L90.1585 34.4481C90.9095 34.0576 91.7357 33.8623 92.637 33.8623C93.5082 33.8623 94.1729 34.0538 94.6348 34.4331C95.1043 34.8049 95.3409 35.3795 95.3409 36.1606V40.4717H94.1091ZM93.5833 37.4674L92.8924 37.4975C92.3816 37.5087 91.9986 37.5988 91.7507 37.7678C91.4991 37.9406 91.3752 38.1997 91.3752 38.5489C91.3752 39.0522 91.6606 39.3 92.2314 39.3C92.6408 39.3 92.9675 39.1873 93.2078 38.9545C93.4557 38.7142 93.5833 38.3987 93.5833 38.0082V37.4674Z" fill="#F26C0C"/>
<path d="M102.77 40.4727H101.013V31.46H102.77V40.4727Z" fill="#F26C0C"/>
<path d="M110.246 40.4727H108.488V31.46H110.246V40.4727Z" fill="#F26C0C"/>
<path d="M118.637 35.1237C118.265 35.1237 117.969 35.2439 117.751 35.4842C117.54 35.7246 117.42 36.0625 117.39 36.4907H119.869C119.869 36.0625 119.756 35.7246 119.538 35.4842C119.317 35.2439 119.016 35.1237 118.637 35.1237ZM118.892 40.5915C117.848 40.5915 117.033 40.3061 116.444 39.7352C115.851 39.1569 115.558 38.3345 115.558 37.2718C115.558 36.1902 115.828 35.3565 116.369 34.7632C116.917 34.1736 117.676 33.877 118.637 33.877C119.546 33.877 120.259 34.1398 120.77 34.6581C121.281 35.18 121.536 35.9011 121.536 36.8211V37.6773H117.36C117.379 38.1805 117.525 38.5711 117.796 38.849C118.074 39.1306 118.464 39.2696 118.967 39.2696C119.358 39.2696 119.726 39.232 120.079 39.1494C120.428 39.0706 120.793 38.9391 121.176 38.7589V40.1258C120.864 40.2873 120.53 40.4037 120.169 40.4713C119.816 40.5502 119.392 40.5915 118.892 40.5915Z" fill="#F26C0C"/>
<path d="M129.546 39.1795C129.854 39.1795 130.226 39.1119 130.657 38.9692V40.2911C130.214 40.4901 129.674 40.5915 129.035 40.5915C128.333 40.5915 127.818 40.4113 127.488 40.0508C127.165 39.6903 127.007 39.157 127.007 38.4435V35.3191H126.166V34.568L127.142 33.9822L127.653 32.6152H128.78V33.9972H130.597V35.3191H128.78V38.4435C128.78 38.6951 128.847 38.8791 128.99 38.9993C129.129 39.1194 129.313 39.1795 129.546 39.1795Z" fill="#F26C0C"/>
</svg>
