<svg width="24" height="25" viewBox="0 0 24 25" fill="none" xmlns="http://www.w3.org/2000/svg">
<path d="M12.1596 12.4022C12.1296 12.4022 12.1096 12.4022 12.0796 12.4022C12.0296 12.3922 11.9596 12.3922 11.8996 12.4022C8.99957 12.3122 6.80957 10.0322 6.80957 7.22223C6.80957 4.36223 9.13957 2.03223 11.9996 2.03223C14.8596 2.03223 17.1896 4.36223 17.1896 7.22223C17.1796 10.0322 14.9796 12.3122 12.1896 12.4022C12.1796 12.4022 12.1696 12.4022 12.1596 12.4022ZM11.9996 3.53223C9.96957 3.53223 8.30957 5.19223 8.30957 7.22223C8.30957 9.22223 9.86957 10.8322 11.8596 10.9022C11.9096 10.8922 12.0496 10.8922 12.1796 10.9022C14.1396 10.8122 15.6796 9.20223 15.6896 7.22223C15.6896 5.19223 14.0296 3.53223 11.9996 3.53223Z" fill="#292D32"/>
<path d="M12.1696 23.3322C10.2096 23.3322 8.23961 22.8322 6.74961 21.8322C5.35961 20.9122 4.59961 19.6522 4.59961 18.2822C4.59961 16.9122 5.35961 15.6422 6.74961 14.7122C9.74961 12.7222 14.6096 12.7222 17.5896 14.7122C18.9696 15.6322 19.7396 16.8922 19.7396 18.2622C19.7396 19.6322 18.9796 20.9022 17.5896 21.8322C16.0896 22.8322 14.1296 23.3322 12.1696 23.3322ZM7.57961 15.9722C6.61961 16.6122 6.09961 17.4322 6.09961 18.2922C6.09961 19.1422 6.62961 19.9622 7.57961 20.5922C10.0696 22.2622 14.2696 22.2622 16.7596 20.5922C17.7196 19.9522 18.2396 19.1322 18.2396 18.2722C18.2396 17.4222 17.7096 16.6022 16.7596 15.9722C14.2696 14.3122 10.0696 14.3122 7.57961 15.9722Z" fill="#292D32"/>
</svg>
