<svg width="141" height="32" viewBox="0 0 141 32" fill="none" xmlns="http://www.w3.org/2000/svg">
<path d="M10.7396 24.4243H6.083V6.2052H0.104492V2.29248H16.7181V6.2052H10.7396V24.4243Z" fill="#263699"/>
<path d="M31.2375 24.4255L30.3512 22.1293H30.231C29.4499 23.1074 28.6463 23.7872 27.8276 24.1687C27.0165 24.5388 25.9537 24.7277 24.6431 24.7277C23.0283 24.7277 21.759 24.2669 20.8277 23.3378C19.8963 22.4125 19.4307 21.0869 19.4307 19.3647C19.4307 17.5745 20.0541 16.2526 21.3083 15.4066C22.5589 14.5531 24.4403 14.0772 26.9564 13.9866L29.8855 13.8959V13.1557C29.8855 11.4335 29.0068 10.5724 27.2568 10.5724C25.9124 10.5724 24.3351 10.9803 22.5251 11.7961L20.9929 8.68401C22.9344 7.66807 25.0825 7.1582 27.4371 7.1582C29.6978 7.1582 31.4327 7.65296 32.6345 8.63869C33.8362 9.6282 34.437 11.1313 34.437 13.1557V24.4255H31.2375ZM29.8855 16.585L28.098 16.6454C26.7649 16.687 25.7734 16.9287 25.1238 17.3705C24.4703 17.8162 24.1474 18.4885 24.1474 19.3949C24.1474 20.7054 24.8872 21.3588 26.3705 21.3588C27.4296 21.3588 28.282 21.0529 28.9242 20.4373C29.5626 19.8141 29.8855 18.9945 29.8855 17.9748V16.585Z" fill="#263699"/>
<path d="M49.2141 24.7277C47.2313 24.7277 45.6766 24.0101 44.5575 22.5674H44.3171C44.4749 23.9799 44.5575 24.7919 44.5575 25.0148V31.8733H39.9609V7.50572H43.7013L44.3472 9.69624H44.5575C45.6278 8.02692 47.22 7.18848 49.3343 7.18848C51.3171 7.18848 52.8681 7.95893 53.9909 9.49985C55.11 11.0408 55.6733 13.186 55.6733 15.9354C55.6733 17.7407 55.4067 19.3119 54.8772 20.6488C54.3552 21.9782 53.6079 22.9904 52.639 23.6853C51.6664 24.3803 50.5247 24.7277 49.2141 24.7277ZM47.8472 10.8746C46.7131 10.8746 45.8869 11.2296 45.3686 11.9321C44.8466 12.6383 44.5763 13.7978 44.5575 15.4067V15.9052C44.5575 17.7181 44.8204 19.0248 45.3536 19.8179C45.8944 20.6035 46.7431 20.9963 47.9072 20.9963C49.9689 20.9963 51.0017 19.2892 51.0017 15.875C51.0017 14.2132 50.7463 12.9669 50.2356 12.1285C49.7323 11.2938 48.9362 10.8746 47.8472 10.8746Z" fill="#263699"/>
<path d="M78.7888 5.8883C77.0238 5.8883 75.6644 6.55301 74.703 7.88243C73.7416 9.20429 73.2609 11.0511 73.2609 13.4267C73.2609 18.3629 75.1011 20.8291 78.7888 20.8291C80.3285 20.8291 82.1987 20.4364 84.3918 19.6508V23.5937C82.5892 24.3491 80.5764 24.7267 78.3532 24.7267C75.1461 24.7267 72.6939 23.7523 70.9927 21.796C69.2991 19.8434 68.4541 17.0448 68.4541 13.3965C68.4541 11.0927 68.8672 9.07211 69.7009 7.33858C70.5421 5.60882 71.7363 4.28318 73.291 3.36543C74.8532 2.44013 76.6858 1.97559 78.7888 1.97559C80.9219 1.97559 83.0624 2.49678 85.218 3.53161L83.7158 7.35368C82.8934 6.9609 82.0672 6.62099 81.2373 6.32641C80.4036 6.0356 79.5887 5.8883 78.7888 5.8883Z" fill="#0B83D9"/>
<path d="M100.205 24.4255L99.319 22.1293H99.1988C98.4177 23.1074 97.6141 23.7872 96.7954 24.1687C95.9842 24.5388 94.9215 24.7277 93.6109 24.7277C91.9961 24.7277 90.7268 24.2669 89.7954 23.3378C88.8641 22.4125 88.3984 21.0869 88.3984 19.3647C88.3984 17.5745 89.0218 16.2526 90.2761 15.4066C91.5266 14.5531 93.4081 14.0772 95.9242 13.9866L98.8533 13.8959V13.1557C98.8533 11.4335 97.9746 10.5724 96.2246 10.5724C94.8802 10.5724 93.3029 10.9803 91.4928 11.7961L89.9607 8.68401C91.9022 7.66807 94.0502 7.1582 96.4048 7.1582C98.6656 7.1582 100.401 7.65296 101.602 8.63869C102.804 9.6282 103.405 11.1313 103.405 13.1557V24.4255H100.205ZM98.8533 16.585L97.0658 16.6454C95.7326 16.687 94.7412 16.9287 94.0915 17.3705C93.4381 17.8162 93.1152 18.4885 93.1152 19.3949C93.1152 20.7054 93.855 21.3588 95.3383 21.3588C96.3973 21.3588 97.2498 21.0529 97.892 20.4373C98.5304 19.8141 98.8533 18.9945 98.8533 17.9748V16.585Z" fill="#0B83D9"/>
<path d="M120.676 19.3949C120.676 21.1398 120.076 22.4617 118.874 23.3681C117.672 24.2745 115.877 24.7277 113.496 24.7277C112.272 24.7277 111.228 24.6409 110.357 24.4709C109.493 24.3123 108.689 24.0706 107.938 23.7458V19.9237C108.787 20.3278 109.748 20.6715 110.822 20.951C111.893 21.2229 112.835 21.3589 113.646 21.3589C115.306 21.3589 116.14 20.8717 116.14 19.8935C116.14 19.5309 116.027 19.2401 115.809 19.0173C115.588 18.7869 115.209 18.5301 114.668 18.2468C114.127 17.956 113.406 17.6199 112.505 17.2346C111.213 16.6908 110.259 16.1885 109.651 15.7239C109.039 15.2632 108.592 14.7344 108.314 14.1377C108.043 13.5334 107.908 12.7894 107.908 11.9019C107.908 10.4025 108.487 9.24303 109.651 8.42725C110.811 7.60392 112.452 7.18848 114.578 7.18848C116.598 7.18848 118.573 7.63413 120.496 8.51789L119.114 11.8414C118.262 11.4789 117.469 11.1843 116.741 10.9501C116.008 10.7197 115.261 10.6027 114.503 10.6027C113.151 10.6027 112.475 10.9728 112.475 11.7055C112.475 12.1209 112.689 12.4835 113.121 12.7932C113.56 13.0953 114.518 13.5448 115.99 14.1377C117.3 14.674 118.262 15.1725 118.874 15.6333C119.493 16.0978 119.948 16.6304 120.241 17.2346C120.53 17.8389 120.676 18.5603 120.676 19.3949Z" fill="#0B83D9"/>
<path d="M140.585 24.4254H136.003V14.5454C136.003 12.098 135.095 10.8744 133.284 10.8744C132 10.8744 131.076 11.32 130.505 12.2038C129.935 13.08 129.649 14.5001 129.649 16.464V24.4254H125.053V0.873535H129.649V5.67757C129.649 6.05146 129.612 6.92767 129.544 8.30619L129.439 9.66582H129.679C130.701 8.01538 132.327 7.18827 134.561 7.18827C136.533 7.18827 138.031 7.72457 139.053 8.78961C140.074 9.85843 140.585 11.3956 140.585 13.3972V24.4254Z" fill="#0B83D9"/>
</svg>
